<svg width="867" height="152" viewBox="0 0 867 152" fill="none" xmlns="http://www.w3.org/2000/svg">
<path d="M167.191 0.266098C167.713 0.414444 168.532 0.908951 168.979 1.35399C169.7 2.07101 169.799 2.34297 169.799 3.43086C169.799 5.01324 169.873 4.84018 164.832 13.7164C164.509 14.2603 163.144 16.7081 161.803 19.1558C158.773 24.5705 158.202 25.4853 157.805 25.4359C157.631 25.4111 147.002 25.4111 134.139 25.4359L110.771 25.4606L107.965 29.8369C106.425 32.2599 104.041 35.9933 102.65 38.1444C101.26 40.2954 99.8689 42.4712 99.5213 43.0152C87.4524 61.8801 85.1677 65.391 84.8698 65.391C84.6214 65.391 80.5488 59.2593 71.6089 45.364C64.7301 34.6582 63.3643 32.5566 61.2038 29.1693L58.8943 25.5842L35.3029 25.51L11.7363 25.4606L11.3887 24.9414C11.2148 24.6447 10.1967 22.8398 9.12885 20.9112C8.06103 19.0074 5.67705 14.7053 3.81457 11.3922C0.139274 4.8649 -0.332555 3.72757 0.164107 2.51605C0.561436 1.60124 1.57959 0.636978 2.54808 0.290833C3.61591 -0.0800476 165.826 -0.104782 167.191 0.266098ZM65.8476 71.0777C76.1782 86.506 84.7456 99.1403 84.8698 99.1403C85.0188 99.1403 85.6396 98.3244 86.2852 97.3354C86.9061 96.3711 87.9987 94.6651 88.7189 93.5772C89.439 92.4893 91.5002 89.3246 93.313 86.5307C96.8145 81.116 98.6273 78.3468 101.856 73.4266C102.948 71.7206 104.935 68.6794 106.226 66.6767C107.518 64.674 109.479 61.6576 110.572 60.001C111.665 58.3445 113.502 55.5011 114.669 53.6962C115.837 51.8913 117.873 48.7513 119.214 46.7239L121.648 43.0152H134.908C142.209 43.0152 148.194 43.0893 148.194 43.1635C148.194 43.2624 147.846 43.8805 147.449 44.5481C147.027 45.1909 146.704 45.8091 146.704 45.8585C146.704 45.9327 146.456 46.4024 146.133 46.9217C145.81 47.4162 145.09 48.6771 144.544 49.6908C143.972 50.7045 142.582 53.2017 141.44 55.2539C140.272 57.2813 137.963 61.4104 136.274 64.402C134.61 67.3937 132.872 70.4596 132.425 71.2013C131.978 71.9431 131.283 73.1793 130.885 73.9211C130.488 74.6628 129.371 76.6655 128.402 78.3715C127.434 80.0775 126.44 81.8577 126.167 82.3275C125.894 82.7972 125.298 83.8604 124.851 84.6763C123.883 86.4318 123.585 86.9263 121.3 90.9811C120.331 92.6871 119.09 94.9124 118.519 95.9261C117.947 96.9398 115.936 100.5 114.049 103.838C112.186 107.176 109.604 111.725 108.337 113.975C107.071 116.225 105.779 118.5 105.481 119.044C104.289 121.121 100.167 128.513 99.4468 129.799C99.0246 130.541 98.1306 132.148 97.4105 133.384C96.7151 134.596 95.2003 137.266 94.058 139.318C87.4772 151.062 87.5269 150.963 86.5584 151.581C85.9376 151.952 85.4657 152.051 84.6214 151.977C83.6778 151.878 83.3549 151.68 82.5106 150.766C81.6911 149.851 78.1897 143.867 73.8687 135.98C73.4465 135.238 72.5525 133.607 71.8324 132.395C71.1122 131.159 70.0941 129.329 69.5229 128.315C68.9766 127.302 67.8591 125.299 67.0644 123.865C65.8724 121.763 60.881 112.937 58.05 107.918C57.752 107.374 57.305 106.582 57.0567 106.187C56.8332 105.767 56.2869 104.827 55.8895 104.085C55.4922 103.344 54.3251 101.267 53.3317 99.5112C52.3384 97.731 51.2458 95.8025 50.8981 95.1843C50.5504 94.5662 49.8799 93.3547 49.3584 92.4646C48.8618 91.5745 48.092 90.2394 47.6946 89.4977C46.2543 86.8521 42.1072 79.4841 41.9085 79.2369C41.8092 79.0885 41.2877 78.149 40.7414 77.1353C40.1702 76.1216 38.2829 72.7096 36.5197 69.5942C34.7566 66.4542 32.9189 63.24 32.4719 62.4241C32.025 61.6082 31.429 60.545 31.1558 60.0752C30.8826 59.6055 29.9141 57.8747 28.9953 56.2429C28.0765 54.6111 27.0832 52.8556 26.81 52.3611C26.512 51.8419 25.8663 50.6798 25.3697 49.765C24.8482 48.8502 23.8549 47.0453 23.1099 45.7843C22.3897 44.5234 21.7937 43.386 21.7937 43.2624C21.7937 43.1141 26.4872 43.0152 34.4089 43.0152H47.049L65.8476 71.0777Z" fill="#26BF00"/>
<path d="M202.438 103.299C202.438 100.438 203.287 98.4006 204.984 97.188C206.682 95.9269 208.331 95.2964 209.932 95.2964H218.589C222.955 95.2964 226.277 97.673 228.557 102.426C230.836 107.18 235.953 109.556 243.908 109.556L269.372 110.065C277.908 110.065 282.176 107.277 282.176 101.699C282.176 97.479 276.962 94.1566 266.534 91.7314C261.878 90.6159 256.737 89.5246 251.11 88.4575C245.484 87.342 239.882 85.9596 234.304 84.3105C228.775 82.6615 223.682 80.7214 219.026 78.4902C214.37 76.2591 210.586 73.2035 207.676 69.3232C204.815 65.3945 203.384 60.7868 203.384 55.5C203.384 45.751 206.852 38.2573 213.788 33.019C220.723 27.7323 232.655 25.0889 249.583 25.0889L268.062 25.5254C278.005 25.5254 286.954 28.096 294.908 33.2373C302.911 38.3301 306.913 44.7082 306.913 52.3716C306.913 55.2332 306.064 57.2946 304.366 58.5557C302.669 59.8167 301.044 60.4473 299.492 60.4473H290.834C286.469 60.4473 283.146 58.0706 280.867 53.3174C278.587 48.5156 273.47 46.1147 265.516 46.1147L243.617 45.6782C235.08 45.6782 230.812 48.4671 230.812 54.0449C230.812 57.1006 233.504 59.5985 238.888 61.5386C244.32 63.4787 250.868 65.2005 258.531 66.7041C266.243 68.1592 273.979 69.9295 281.74 72.0151C289.5 74.1007 296.072 77.5444 301.456 82.3462C306.888 87.0994 309.604 93.041 309.604 100.171C309.604 109.92 306.112 117.438 299.128 122.725C292.192 127.963 280.285 130.582 263.406 130.582L241.361 130.146C231.418 130.146 222.445 127.599 214.442 122.506C206.439 117.365 202.438 110.963 202.438 103.299ZM314.878 39.4214V32.5825C314.878 30.5939 315.532 28.9448 316.842 27.6353C318.152 26.3257 319.801 25.6709 321.789 25.6709H414.114C416.103 25.6709 417.752 26.3257 419.061 27.6353C420.371 28.9448 421.026 30.5939 421.026 32.5825V39.4214C421.026 41.41 420.371 43.0591 419.061 44.3687C417.752 45.6297 416.103 46.2603 414.114 46.2603H381.666V123.307C381.666 125.198 380.987 126.799 379.629 128.108C378.319 129.369 376.719 130 374.827 130H361.076C359.185 130 357.56 129.369 356.202 128.108C354.892 126.799 354.238 125.198 354.238 123.307V46.2603H321.789C319.801 46.2603 318.152 45.6297 316.842 44.3687C315.532 43.0591 314.878 41.41 314.878 39.4214ZM426.008 31.7822C425.717 31.2002 425.571 30.5697 425.571 29.8906C425.571 29.1631 426.008 28.29 426.881 27.2715C427.802 26.2044 429.088 25.6709 430.737 25.6709H446.67C450.453 25.6709 453.339 27.9748 455.328 32.5825L483.483 95.2964L511.639 32.5825C513.628 28.0233 516.514 25.7194 520.297 25.6709H536.23C537.928 25.6709 539.213 26.2044 540.086 27.2715C540.959 28.29 541.396 29.1631 541.396 29.8906C541.396 30.5697 541.274 31.2002 541.032 31.7822L499.126 122.579C496.846 127.526 493.378 130 488.722 130H478.245C473.589 130 470.121 127.526 467.841 122.579L426.008 31.7822ZM553.362 124.762C546.96 120.299 543.759 113.994 543.759 105.846C543.759 97.6973 546.96 91.4404 553.362 87.0752C559.813 82.71 568.107 80.5273 578.244 80.5273H602.325C602.325 74.8525 601.137 70.8996 598.761 68.6685C596.384 66.4373 592.213 65.3218 586.247 65.3218C580.33 65.3218 576.158 66.8011 573.733 69.7598C571.357 72.6699 568.422 74.125 564.93 74.125H554.09C552.78 74.125 551.689 73.7127 550.816 72.8882C549.991 72.0151 549.579 70.9481 549.579 69.687C549.579 55.7668 562.796 48.8066 589.23 48.8066C600.773 48.8066 610.037 51.4015 617.022 56.5913C624.006 61.7326 627.498 69.7113 627.498 80.5273V125.562C627.498 126.872 627.086 127.939 626.262 128.763C625.437 129.588 624.37 130 623.06 130H609.019C607.709 130 606.642 129.588 605.818 128.763C604.993 127.89 604.581 126.823 604.581 125.562V123.307C596.917 128.787 588.066 131.504 578.026 131.455C568.034 131.455 559.813 129.224 553.362 124.762ZM579.99 97.0425C576.595 97.0425 573.903 97.867 571.914 99.5161C569.974 101.165 569.004 103.299 569.004 105.918C569.004 108.538 570.023 110.696 572.06 112.394C574.097 114.091 576.983 114.94 580.718 114.94C588.187 114.94 595.39 112.757 602.325 108.392V97.0425H579.99ZM646.959 96.4604V54.7725C646.959 53.4629 647.371 52.3958 648.195 51.5713C649.068 50.6982 650.135 50.2617 651.397 50.2617H667.693C668.954 50.2617 669.997 50.6982 670.822 51.5713C671.695 52.3958 672.131 53.4629 672.131 54.7725V96.4604C672.131 108.101 676.739 113.921 685.955 113.921C692.017 113.921 698.541 110.429 705.525 103.445V54.7725C705.525 53.4629 705.938 52.3958 706.762 51.5713C707.635 50.6982 708.702 50.2617 709.963 50.2617H726.188C727.497 50.2617 728.564 50.6982 729.389 51.5713C730.262 52.3958 730.698 53.4629 730.698 54.7725V125.562C730.698 126.823 730.262 127.89 729.389 128.763C728.564 129.588 727.497 130 726.188 130H709.963C708.702 130 707.635 129.588 706.762 128.763C705.938 127.89 705.525 126.823 705.525 125.562V120.906C697.183 127.939 688.283 131.455 678.825 131.455C669.415 131.455 661.752 128.593 655.835 122.87C649.917 117.098 646.959 108.295 646.959 96.4604ZM750.159 125.562V30.1816C750.159 28.8721 750.571 27.805 751.395 26.9805C752.268 26.1074 753.335 25.6709 754.596 25.6709H770.893C772.154 25.6709 773.197 26.1074 774.022 26.9805C774.895 27.805 775.331 28.8721 775.331 30.1816V125.562C775.331 126.823 774.895 127.89 774.022 128.763C773.197 129.588 772.154 130 770.893 130H754.596C753.335 130 752.268 129.588 751.395 128.763C750.571 127.89 750.159 126.823 750.159 125.562ZM832.696 114.212L842.664 113.339H845.356C846.665 113.339 847.732 113.752 848.557 114.576C849.43 115.401 849.866 116.468 849.866 117.777V125.562C849.866 126.629 849.43 127.599 848.557 128.472C847.732 129.297 846.665 129.806 845.356 130C840.408 130.97 833.957 131.455 826.003 131.455C805.147 131.455 794.719 120.542 794.719 98.7158V30.1816C794.719 28.8721 795.131 27.805 795.956 26.9805C796.829 26.1074 797.896 25.6709 799.157 25.6709H815.454C816.715 25.6709 817.758 26.1074 818.582 26.9805C819.455 27.805 819.892 28.8721 819.892 30.1816V54.4814H840.19C841.451 54.4814 842.494 54.8937 843.318 55.7183C844.191 56.5428 844.628 57.6099 844.628 58.9194V67.5771C844.628 68.8867 844.191 69.9538 843.318 70.7783C842.494 71.6029 841.451 72.0151 840.19 72.0151H819.892V98.7158C819.892 103.663 821.056 107.495 823.384 110.211C825.712 112.879 828.816 114.212 832.696 114.212Z" fill="black"/>
</svg>
