<svg width="128" height="128" viewBox="0 0 128 128" fill="none" xmlns="http://www.w3.org/2000/svg">
<path d="M122.157 10.1891C122.526 10.2945 123.105 10.6458 123.42 10.962C123.93 11.4715 124 11.6647 124 12.4377C124 13.562 124.052 13.4391 120.49 19.7459C120.261 20.1323 119.297 21.8716 118.349 23.6107C116.208 27.458 115.804 28.108 115.524 28.0729C115.401 28.0553 107.889 28.0553 98.7984 28.0729L82.2838 28.0904L80.3008 31.1999C79.2124 32.9215 77.5276 35.5742 76.5446 37.1026C75.5622 38.631 74.5791 40.1769 74.3335 40.5635C65.8042 53.9675 64.1895 56.4621 63.979 56.4621C63.8034 56.4621 60.9253 52.1053 54.6073 42.2323C49.7459 34.6256 48.7807 33.1323 47.2538 30.7256L45.6216 28.1783L28.9492 28.1255L12.2943 28.0904L12.0486 27.7215C11.9257 27.5107 11.2062 26.2283 10.4515 24.858C9.69687 23.5053 8.01207 20.4485 6.69582 18.0945C4.09843 13.4566 3.76498 12.6485 4.11598 11.7877C4.39678 11.1377 5.11632 10.4526 5.80077 10.2066C6.55543 9.94313 121.192 9.92555 122.157 10.1891ZM50.5357 60.5026C57.8365 71.4648 63.8912 80.4419 63.979 80.4419C64.0843 80.4419 64.523 79.8621 64.9793 79.1594C65.4181 78.4743 66.1902 77.2621 66.6992 76.4891C67.2081 75.7161 68.6648 73.4675 69.946 71.4824C72.4205 67.6351 73.7017 65.6675 75.9834 62.1716C76.7552 60.9594 78.1594 58.7986 79.0718 57.3756C79.9849 55.9526 81.3707 53.8094 82.1432 52.6323C82.9156 51.4553 84.2139 49.435 85.0386 48.1526C85.8641 46.8702 87.3029 44.6391 88.2506 43.1986L89.9708 40.5635H99.3419C104.502 40.5635 108.731 40.6161 108.731 40.6688C108.731 40.7391 108.485 41.1783 108.205 41.6526C107.907 42.1094 107.678 42.5486 107.678 42.5837C107.678 42.6364 107.503 42.9702 107.275 43.3391C107.047 43.6905 106.538 44.5864 106.152 45.3067C105.748 46.0269 104.765 47.8012 103.958 49.2594C103.133 50.6999 101.501 53.6337 100.307 55.7594C99.1313 57.885 97.903 60.0634 97.5871 60.5904C97.2712 61.1175 96.78 61.9959 96.4987 62.5229C96.2182 63.0499 95.4288 64.4729 94.744 65.6851C94.0599 66.8972 93.3574 68.1621 93.1645 68.4959C92.9715 68.8296 92.5503 69.5851 92.2344 70.1648C91.5503 71.4121 91.3397 71.7635 89.7249 74.6445C89.0401 75.8567 88.163 77.4378 87.7595 78.1581C87.3552 78.8783 85.934 81.408 84.6005 83.7797C83.2838 86.1514 81.4591 89.3836 80.5637 90.9823C79.669 92.581 78.7559 94.1974 78.5453 94.584C77.7029 96.0597 74.7898 101.312 74.2808 102.226C73.9824 102.753 73.3506 103.895 72.8417 104.773C72.3503 105.634 71.2797 107.531 70.4725 108.989C65.8217 117.334 65.8568 117.263 65.1724 117.702C64.7336 117.966 64.4001 118.036 63.8034 117.984C63.1366 117.913 62.9084 117.773 62.3117 117.123C61.7325 116.473 59.258 112.221 56.2043 106.617C55.9059 106.09 55.2741 104.931 54.7652 104.07C54.2563 103.192 53.5367 101.892 53.1331 101.171C52.747 100.452 51.9572 99.0283 51.3956 98.0094C50.5532 96.5159 47.0257 90.2448 45.025 86.6786C44.8144 86.2921 44.4985 85.7294 44.323 85.4487C44.165 85.1503 43.7789 84.4824 43.4981 83.9552C43.2173 83.4287 42.3925 81.9529 41.6905 80.7054C40.9885 79.4405 40.2163 78.0703 39.9706 77.631C39.7249 77.1918 39.251 76.331 38.8825 75.6986C38.5315 75.0661 37.9875 74.1175 37.7066 73.5905C36.6887 71.7108 33.7579 66.4756 33.6175 66.3C33.5473 66.1945 33.1788 65.527 32.7927 64.8067C32.389 64.0864 31.0552 61.6621 29.8091 59.4486C28.5631 57.2175 27.2644 54.9337 26.9485 54.354C26.6326 53.7743 26.2114 53.0189 26.0184 52.6851C25.8253 52.3513 25.1408 51.1215 24.4915 49.9621C23.8422 48.8027 23.1402 47.5553 22.9471 47.204C22.7365 46.8351 22.2802 46.0094 21.9292 45.3594C21.5607 44.7094 20.8587 43.427 20.3322 42.531C19.8232 41.6351 19.402 40.8269 19.402 40.7391C19.402 40.6337 22.719 40.5635 28.3174 40.5635H37.2504L50.5357 60.5026Z" fill="#26BF00"/>
</svg>
