<svg width="148" height="157" viewBox="0 0 148 157" fill="none" xmlns="http://www.w3.org/2000/svg">
<circle cx="70.5" cy="71.0537" r="70.5" fill="#F5F8FF"/>
<circle cx="70.5003" cy="71.0537" r="54.8333" fill="#E4ECFE"/>
<rect width="25.9866" height="4.48045" rx="2.24022" transform="matrix(-0.707107 0.707107 0.707107 0.707107 136.841 51.4169)" fill="#BD3838"/>
<rect width="25.9866" height="4.48045" rx="2.24022" transform="matrix(-0.707107 0.707107 0.707107 0.707107 136.841 51.4169)" fill="#BD3838"/>
<rect width="25.9866" height="4.48045" rx="2.24022" transform="matrix(-0.707107 0.707107 0.707107 0.707107 136.841 51.4169)" fill="#BD3838"/>
<rect width="25.9866" height="4.48045" rx="2.24022" transform="matrix(-0.707107 0.707107 0.707107 0.707107 136.841 51.4169)" fill="#291A66"/>
<rect width="25.9866" height="4.48045" rx="2.24022" transform="matrix(0.707107 0.707107 0.707107 -0.707107 118.465 54.585)" fill="#BD3838"/>
<rect width="25.9866" height="4.48045" rx="2.24022" transform="matrix(0.707107 0.707107 0.707107 -0.707107 118.465 54.585)" fill="#BD3838"/>
<rect width="25.9866" height="4.48045" rx="2.24022" transform="matrix(0.707107 0.707107 0.707107 -0.707107 118.465 54.585)" fill="#BD3838"/>
<rect width="25.9866" height="4.48045" rx="2.24022" transform="matrix(0.707107 0.707107 0.707107 -0.707107 118.465 54.585)" fill="#291A66"/>
<rect width="17.0856" height="2.94579" rx="1.47289" transform="matrix(-0.707107 0.707107 0.707107 0.707107 51.3555 14.0742)" fill="#BD3838"/>
<rect width="17.0856" height="2.94579" rx="1.47289" transform="matrix(-0.707107 0.707107 0.707107 0.707107 51.3555 14.0742)" fill="#BD3838"/>
<rect width="17.0856" height="2.94579" rx="1.47289" transform="matrix(-0.707107 0.707107 0.707107 0.707107 51.3555 14.0742)" fill="#BD3838"/>
<rect width="17.0856" height="2.94579" rx="1.47289" transform="matrix(-0.707107 0.707107 0.707107 0.707107 51.3555 14.0742)" fill="#291A66"/>
<rect width="17.0856" height="2.94579" rx="1.47289" transform="matrix(0.707107 0.707107 0.707107 -0.707107 39.2744 16.1572)" fill="#BD3838"/>
<rect width="17.0856" height="2.94579" rx="1.47289" transform="matrix(0.707107 0.707107 0.707107 -0.707107 39.2744 16.1572)" fill="#BD3838"/>
<rect width="17.0856" height="2.94579" rx="1.47289" transform="matrix(0.707107 0.707107 0.707107 -0.707107 39.2744 16.1572)" fill="#BD3838"/>
<rect width="17.0856" height="2.94579" rx="1.47289" transform="matrix(0.707107 0.707107 0.707107 -0.707107 39.2744 16.1572)" fill="#291A66"/>
<rect width="14.8482" height="2.56003" rx="1.28001" transform="matrix(-0.707107 0.707107 0.707107 0.707107 24.0195 74.5948)" fill="#BD3838"/>
<rect width="14.8482" height="2.56003" rx="1.28001" transform="matrix(-0.707107 0.707107 0.707107 0.707107 24.0195 74.5948)" fill="#BD3838"/>
<rect width="14.8482" height="2.56003" rx="1.28001" transform="matrix(-0.707107 0.707107 0.707107 0.707107 24.0195 74.5948)" fill="#BD3838"/>
<rect width="14.8482" height="2.56003" rx="1.28001" transform="matrix(-0.707107 0.707107 0.707107 0.707107 24.0195 74.5948)" fill="#291A66"/>
<rect width="14.8482" height="2.56003" rx="1.28001" transform="matrix(0.707107 0.707107 0.707107 -0.707107 13.5205 76.4049)" fill="#BD3838"/>
<rect width="14.8482" height="2.56003" rx="1.28001" transform="matrix(0.707107 0.707107 0.707107 -0.707107 13.5205 76.4049)" fill="#BD3838"/>
<rect width="14.8482" height="2.56003" rx="1.28001" transform="matrix(0.707107 0.707107 0.707107 -0.707107 13.5205 76.4049)" fill="#BD3838"/>
<rect width="14.8482" height="2.56003" rx="1.28001" transform="matrix(0.707107 0.707107 0.707107 -0.707107 13.5205 76.4049)" fill="#291A66"/>
<g filter="url(#filter0_f_380_5356)">
<ellipse cx="77.2381" cy="145.81" rx="63.2381" ry="4.19048" fill="#C7CFE0"/>
</g>
<g filter="url(#filter1_f_380_5356)">
<ellipse cx="77" cy="145" rx="53" ry="3" fill="#C7CFE0"/>
</g>
<path d="M28.4452 101.888H106.685V144.754H28.4452V101.888Z" fill="#291A66"/>
<path d="M69.398 101.888H125.825V144.754H69.398V101.888Z" fill="#4F46E5"/>
<path d="M126.703 101.73L138.298 118.405C138.528 118.736 138.292 119.189 137.888 119.191L81.64 119.352C81.3132 119.353 81.0066 119.194 80.8188 118.927L68.8531 101.888L126.703 101.73Z" fill="#291A66"/>
<path d="M28.4453 101.888L16.8531 116.118C16.3209 116.771 16.7857 117.75 17.6284 117.75H59.5162C59.8709 117.75 60.199 117.562 60.3786 117.256L69.3984 101.888H28.4453Z" fill="#4F46E5"/>
<rect x="92.7031" y="75.4012" width="47.9426" height="11.9856" rx="5.99282" transform="rotate(45 92.7031 75.4012)" fill="#4F46E5"/>
<rect x="106.561" y="89.2592" width="13.1194" height="11.9856" rx="5.99282" transform="rotate(45 106.561 89.2592)" fill="#291A66"/>
<rect x="102.094" y="84.7925" width="13.1194" height="11.9856" rx="5.99282" transform="rotate(45 102.094 84.7925)" fill="#4F46E5"/>
<path fill-rule="evenodd" clip-rule="evenodd" d="M96.6954 79.3936C96.4024 81.1761 95.8299 82.9438 94.9586 84.6366L94.6621 85.2126C93.6334 87.2113 92.2775 88.9317 90.6936 90.3421L87.3201 86.9686C84.9797 84.6282 84.9797 80.8338 87.3201 78.4934C89.6604 76.1531 93.4548 76.1531 95.7952 78.4934L96.6954 79.3936Z" fill="#291A66"/>
<circle cx="70.9893" cy="65.3182" r="30.0613" transform="rotate(45 70.9893 65.3182)" fill="#291A66"/>
<circle cx="72.4307" cy="63.6047" r="30.1261" transform="rotate(45 72.4307 63.6047)" fill="#4F46E5"/>
<circle cx="73.1182" cy="63.1581" r="22.6755" transform="rotate(45 73.1182 63.1581)" fill="#291A66"/>
<g filter="url(#filter2_i_380_5356)">
<circle cx="72.4307" cy="63.6047" r="21.2178" transform="rotate(45 72.4307 63.6047)" fill="white"/>
</g>
<defs>
<filter id="filter0_f_380_5356" x="7" y="134.619" width="140.477" height="22.381" filterUnits="userSpaceOnUse" color-interpolation-filters="sRGB">
<feFlood flood-opacity="0" result="BackgroundImageFix"/>
<feBlend mode="normal" in="SourceGraphic" in2="BackgroundImageFix" result="shape"/>
<feGaussianBlur stdDeviation="3.5" result="effect1_foregroundBlur_380_5356"/>
</filter>
<filter id="filter1_f_380_5356" x="22" y="140" width="110" height="10" filterUnits="userSpaceOnUse" color-interpolation-filters="sRGB">
<feFlood flood-opacity="0" result="BackgroundImageFix"/>
<feBlend mode="normal" in="SourceGraphic" in2="BackgroundImageFix" result="shape"/>
<feGaussianBlur stdDeviation="1" result="effect1_foregroundBlur_380_5356"/>
</filter>
<filter id="filter2_i_380_5356" x="51.2129" y="42.3868" width="45.4355" height="47.4357" filterUnits="userSpaceOnUse" color-interpolation-filters="sRGB">
<feFlood flood-opacity="0" result="BackgroundImageFix"/>
<feBlend mode="normal" in="SourceGraphic" in2="BackgroundImageFix" result="shape"/>
<feColorMatrix in="SourceAlpha" type="matrix" values="0 0 0 0 0 0 0 0 0 0 0 0 0 0 0 0 0 0 127 0" result="hardAlpha"/>
<feOffset dx="3" dy="5"/>
<feGaussianBlur stdDeviation="3"/>
<feComposite in2="hardAlpha" operator="arithmetic" k2="-1" k3="1"/>
<feColorMatrix type="matrix" values="0 0 0 0 0.236689 0 0 0 0 0.245578 0 0 0 0 0.458903 0 0 0 0.2 0"/>
<feBlend mode="normal" in2="shape" result="effect1_innerShadow_380_5356"/>
</filter>
</defs>
</svg>
